<svg xmlns="http://www.w3.org/2000/svg" viewBox="0 0 100 100" role="img" aria-labelledby="title">
  <title id="title">Resolve MAC Address</title>
  <rect width="100" height="100" rx="18" fill="#1f6feb"/>
  <path
    d="M18 24h64a6 6 0 0 1 6 6v29a6 6 0 0 1-6 6H59v10H41V65H18a6 6 0 0 1-6-6V30a6 6 0 0 1 6-6z"
    fill="#ffffff"
  />
  <path
    d="M27 39h7M43 39h7M59 39h7M35 50h7M51 50h7M67 50h7"
    fill="none"
    stroke="#1f6feb"
    stroke-width="5"
    stroke-linecap="round"
  />
  <path
    d="M33 82h34"
    fill="none"
    stroke="#ffffff"
    stroke-width="7"
    stroke-linecap="round"
  />
  <path
    d="M72 20v-8M78 20v-8M84 20v-8"
    fill="none"
    stroke="#ffffff"
    stroke-width="4"
    stroke-linecap="square"
  />
</svg>
