<svg xmlns="http://www.w3.org/2000/svg" viewBox="0 0 100 100" role="img" aria-labelledby="title">
  <title id="title">Resolve MAC Address</title>
  <rect width="100" height="100" rx="18" fill="#1f6feb"/>
  <path
    d="M43 20a24 24 0 1 0 0 48 24 24 0 0 0 0-48z"
    fill="none"
    stroke="#ffffff"
    stroke-width="8"
  />
  <path
    d="M61 61l19 19"
    fill="none"
    stroke="#ffffff"
    stroke-width="9"
    stroke-linecap="round"
  />
  <path
    d="M53 49c-2.7 3.2-6.3 5-10.5 5-7 0-12-4.7-12-11.2 0-7.4 5.4-13 12.5-13 6.7 0 11.8 4.6 11.8 11.4 0 4.5-2.2 7.3-5.3 7.3-2.2 0-3.6-1.1-3.9-3-1 1.8-2.8 3-5 3-3.1 0-5.2-2.3-5.2-5.5 0-4 2.8-7 6.4-7 2 0 3.5.8 4.3 2.3l.3-1.8h4.1l-1.4 8.2c-.2 1.1.2 1.7 1.1 1.7 1.4 0 2.5-1.8 2.5-5.1 0-5.6-4.1-9.2-10.1-9.2-6.1 0-10.4 4.4-10.4 10.6 0 5.1 3.9 8.7 9.4 8.7 3.3 0 6.1-1.3 8.5-3.8zM42.3 45c1.8 0 3.1-1.5 3.1-3.5 0-1.4-.9-2.4-2.4-2.4-1.8 0-3.1 1.5-3.1 3.5 0 1.4.9 2.4 2.4 2.4z"
    fill="#ffffff"
  />
</svg>
