<svg xmlns="http://www.w3.org/2000/svg" viewBox="0 0 100 100" role="img" aria-labelledby="title">
  <title id="title">Wait for TCP Port</title>
  <rect width="100" height="100" rx="18" fill="#1f6feb"/>
  <path
    d="M15 20h8v17a2.8 2.8 0 1 0 5.6 0V20h7.8v17a2.8 2.8 0 1 0 5.6 0V20h7.8v17a2.8 2.8 0 1 0 5.6 0V20h7.8v17a2.8 2.8 0 1 0 5.6 0V20h7.8v17a2.8 2.8 0 1 0 5.6 0V20H85a6 6 0 0 1 6 6v37a6 6 0 0 1-6 6H72v8a5 5 0 0 1-5 5H33a5 5 0 0 1-5-5v-8H15a6 6 0 0 1-6-6V26a6 6 0 0 1 6-6z"
    fill="#ffffff"
  />
  <g transform="translate(0 12)">
    <path
      d="M39 35h22M39 65h22M42 38l16 24M58 38 42 62"
      fill="none"
      stroke="#1f6feb"
      stroke-width="5.5"
      stroke-linecap="round"
      stroke-linejoin="round"
    />
    <path
      d="M45 42h10l-5 8zM45 65h10l-5-8z"
      fill="#1f6feb"
    />
  </g>
</svg>
